<svg width="40" height="40" viewBox="0 0 40 40" fill="none" xmlns="http://www.w3.org/2000/svg">
<path d="M10.3761 8.01824C9.7252 7.36737 8.66991 7.36737 8.01905 8.01824C7.36816 8.66911 7.36816 9.72439 8.01905 10.3753L17.6436 19.9998L8.01915 29.6243C7.36826 30.2751 7.36826 31.3305 8.01915 31.9813C8.67001 32.6321 9.7253 32.6321 10.3762 31.9813L20.0006 22.3568L29.6251 31.9813C30.276 32.6321 31.3313 32.6321 31.9821 31.9813C32.633 31.3305 32.633 30.2751 31.9821 29.6243L22.3576 19.9998L31.9821 10.3753C32.6331 9.72439 32.6331 8.66911 31.9821 8.01824C31.3313 7.36737 30.2761 7.36737 29.6251 8.01824L20.0006 17.6428L10.3761 8.01824Z" fill="white"/>
</svg>
