<svg width="40" height="40" viewBox="0 0 40 40" fill="none" xmlns="http://www.w3.org/2000/svg">
<g clip-path="url(#clip0_12109_3)">
<path d="M38.1818 0H1.81818C0.814061 0 0 0.814061 0 1.81818V38.1818C0 39.1859 0.814061 40 1.81818 40H38.1818C39.1859 40 40 39.1859 40 38.1818V1.81818C40 0.814061 39.1859 0 38.1818 0ZM36.3636 36.3636H3.63636V3.63636H36.3636V36.3636Z" fill="white"/>
<path d="M10.9092 13.3332H29.091C30.0951 13.3332 30.9092 12.5191 30.9092 11.515C30.9092 10.5109 30.0951 9.69684 29.091 9.69684H10.9092C9.90506 9.69684 9.091 10.5109 9.091 11.515C9.091 12.5191 9.90506 13.3332 10.9092 13.3332Z" fill="white"/>
<path d="M10.9092 21.8181H29.091C30.0951 21.8181 30.9092 21.004 30.9092 19.9999C30.9092 18.9958 30.0951 18.1817 29.091 18.1817H10.9092C9.90506 18.1817 9.091 18.9958 9.091 19.9999C9.091 21.004 9.90506 21.8181 10.9092 21.8181Z" fill="white"/>
<path d="M10.9092 30.3029H29.091C30.0951 30.3029 30.9092 29.4889 30.9092 28.4847C30.9092 27.4806 30.0951 26.6666 29.091 26.6666H10.9092C9.90506 26.6666 9.091 27.4806 9.091 28.4847C9.091 29.4889 9.90506 30.3029 10.9092 30.3029Z" fill="white"/>
</g>
<defs>
<clipPath id="clip0_12109_3">
<rect width="40" height="40" fill="white"/>
</clipPath>
</defs>
</svg>
